<?xml version="1.0" encoding="utf-8"?>
<!-- Generator: Adobe Illustrator 27.4.1, SVG Export Plug-In . SVG Version: 6.00 Build 0)  -->
<svg version="1.1" id="Capa_1" xmlns="http://www.w3.org/2000/svg" xmlns:xlink="http://www.w3.org/1999/xlink" x="0px" y="0px"
	 viewBox="0 0 490.7 490.7" style="enable-background:new 0 0 490.7 490.7;" xml:space="preserve">
<style type="text/css">
	.st0{fill:#FFFFFF;}
</style>
<path class="st0" d="M485.5,6.9c-3.2-2.2-7.4-2.5-10.8-0.7L5.5,256.2c-3.5,1.9-5.6,5.6-5.5,9.6c0.2,4,2.7,7.5,6.4,9l134,55.3
	l60.6,149.5c1.4,3.4,4.4,5.8,8.1,6.3c3.8,0.5,7.3-1,9.5-3.8l77-96.3l121.3,43.2c2.9,1,6.1,0.7,8.8-0.9c2.6-1.6,4.4-4.3,4.9-7.3
	l59.3-404.2C490.3,12.9,488.7,9.1,485.5,6.9z M414.2,61.8l-268,248.4L34.5,264.1L414.2,61.8z M234,361.3l41.3,16.8l-50.6,63.2
	L234,361.3z M217.1,340.4c-1.1,1.5-1.8,3.2-2.1,5.1l-10.2,89L160.5,325l236.7-219.3L217.1,340.4z M411.9,405.5l-170.2-63.3
	L463.6,53.1L411.9,405.5z"/>
</svg>
