<?xml version="1.0" encoding="utf-8"?>
<!-- Generator: Adobe Illustrator 27.4.1, SVG Export Plug-In . SVG Version: 6.00 Build 0)  -->
<svg version="1.1" id="Layer_1" xmlns="http://www.w3.org/2000/svg" xmlns:xlink="http://www.w3.org/1999/xlink" x="0px" y="0px"
	 viewBox="0 0 512 512" style="enable-background:new 0 0 512 512;" xml:space="preserve">
<style type="text/css">
	.st0{fill:#FFFFFF;}
</style>
<g>
	<path class="st0" d="M411.4,103.5c4,4,4,10.5,0,14.4c-4,4-10.6,4-14.6,0c-38.4-37.9-100.9-37.9-139.3,0c-2,2-4.7,3-7.3,3
		s-5.3-1-7.3-3c-4-4-4-10.5,0-14.4C289.4,57.7,365,57.7,411.4,103.5z"/>
	<path class="st0" d="M9.1,456.9L176.3,292c-22.1-30.6-34.1-67.1-34.1-105.5c0-48.7,19.2-94.5,54.2-128.9
		c34.9-34.4,81.4-53.4,130.8-53.4S423,23.2,458,57.6c72.1,71.1,72.1,186.8,0,257.9C423,350,376.6,369,327.2,369
		c-38.9,0-75.9-11.8-106.9-33.6L53,500.2c-6.1,6-14,9-22,9c-7.9,0-15.9-3-22-9C-3,488.3-3,468.9,9.1,456.9z M225.7,286.7
		L225.7,286.7c27.1,26.7,63.1,41.5,101.5,41.5c38.3,0,74.4-14.7,101.5-41.5c56-55.2,56-145,0-200.1c-27.1-26.7-63.1-41.5-101.5-41.5
		c-38.3,0-74.4,14.7-101.5,41.5c-27.1,26.7-42,62.3-42,100.1C183.6,224.4,198.6,259.9,225.7,286.7z"/>
</g>
</svg>
